<svg xmlns="http://www.w3.org/2000/svg" xmlns:xlink="http://www.w3.org/1999/xlink" width="100" height="100" viewBox="0 0 100 100"><g><circle stroke="none" fill="#FF6868" r="48%" cx="50%" cy="50%"></circle><g transform="translate(50 50) scale(0.69 0.69) rotate(315) translate(-50 -50)" style="fill:#FFFFFF"><svg fill="#FFFFFF" xmlns="http://www.w3.org/2000/svg" xmlns:xlink="http://www.w3.org/1999/xlink" version="1.1" x="0px" y="0px" viewBox="0 0 100 100" enable-background="new 0 0 100 100" xml:space="preserve"><g display="none"><rect x="2.5" y="2.5" display="inline" fill="#FFFFFF" stroke="#FFFFFF" stroke-miterlimit="10" width="95" height="95"></rect></g><g><path fill="#FFFFFF" d="M52.355,19.405l1.992-4.315c0.323-0.702,0.018-1.534-0.685-1.858c-0.703-0.321-1.534-0.017-1.858,0.685   l-1.804,3.908l-1.805-3.908c-0.325-0.701-1.153-1.006-1.858-0.685c-0.702,0.324-1.008,1.156-0.685,1.858l1.992,4.315   C33.228,20.711,21.859,33.87,21.859,49.868c0,9.786,5.147,22.694,16.448,27.909c0.824,0.381,1.668,0.66,2.484,0.93   c1.446,0.479,2.812,0.932,3.676,1.844c0.217,0.244,0.644,1.233,0.926,1.887c0.949,2.199,2.131,4.935,4.607,4.935   c2.476,0,3.656-2.734,4.605-4.931c0.282-0.655,0.71-1.645,0.928-1.89c0.863-0.914,2.23-1.366,3.678-1.845   c0.815-0.271,1.659-0.549,2.484-0.93c11.298-5.214,16.444-18.122,16.444-27.909C78.141,33.87,66.773,20.711,52.355,19.405z    M60.125,74.373c-0.632,0.291-1.341,0.525-2.091,0.773c-1.74,0.575-3.713,1.229-5.224,2.828c-0.661,0.696-1.118,1.755-1.647,2.979   c-0.286,0.664-0.765,1.772-1.162,2.374c-0.398-0.603-0.877-1.712-1.164-2.377c-0.528-1.223-0.984-2.28-1.643-2.975   c-1.515-1.602-3.485-2.254-5.225-2.829c-0.75-0.248-1.458-0.482-2.091-0.774c-9.804-4.524-14.27-15.874-14.27-24.505   c0-14.793,10.942-26.828,24.392-26.828c13.448,0,24.39,12.035,24.39,26.828C74.391,58.499,69.927,69.85,60.125,74.373z    M49.942,27.552c-10.936,0-19.833,10.1-19.833,22.513c0,12.412,8.897,22.511,19.833,22.511c10.935,0,19.831-10.099,19.831-22.511   C69.773,37.651,60.877,27.552,49.942,27.552z M49.942,69.774c-9.392,0-17.032-8.842-17.032-19.71   c0-10.869,7.641-19.712,17.032-19.712c9.391,0,17.03,8.843,17.03,19.712C66.973,60.933,59.333,69.774,49.942,69.774z M51.439,48.56   c0.4,0.4,0.63,0.94,0.63,1.5c0,0.561-0.229,1.11-0.63,1.5c-0.39,0.4-0.939,0.63-1.5,0.63c-0.56,0-1.109-0.229-1.5-0.63   c-0.399-0.39-0.62-0.939-0.62-1.5c0-0.56,0.221-1.1,0.62-1.5C49.22,47.77,50.649,47.77,51.439,48.56z M51.439,37.28   c0.4,0.399,0.63,0.949,0.63,1.51c0,0.56-0.229,1.1-0.63,1.5c-0.39,0.39-0.939,0.62-1.5,0.62c-0.56,0-1.109-0.23-1.5-0.62   c-0.399-0.4-0.62-0.94-0.62-1.5c0-0.561,0.221-1.11,0.62-1.51C49.22,36.49,50.649,36.49,51.439,37.28z M51.439,59.84   c0.4,0.39,0.63,0.94,0.63,1.5s-0.229,1.11-0.63,1.5c-0.39,0.4-0.939,0.63-1.5,0.63c-0.56,0-1.109-0.229-1.5-0.63   c-0.399-0.39-0.62-0.94-0.62-1.5s0.221-1.11,0.62-1.5C49.22,59.05,50.649,59.05,51.439,59.84z M61.29,50.069   c0,0.561-0.23,1.101-0.62,1.5c-0.4,0.391-0.94,0.62-1.5,0.62c-0.561,0-1.11-0.229-1.51-0.62c-0.391-0.399-0.62-0.939-0.62-1.5   c0-0.569,0.229-1.109,0.62-1.51c0.79-0.79,2.22-0.79,3.01,0C61.06,48.96,61.29,49.5,61.29,50.069z M42.22,51.569   c-0.4,0.391-0.95,0.62-1.5,0.62c-0.56,0-1.11-0.229-1.51-0.62c-0.391-0.39-0.62-0.939-0.62-1.51c0-0.56,0.229-1.109,0.62-1.5   c0.79-0.79,2.22-0.79,3.01,0c0.39,0.4,0.62,0.94,0.62,1.5C42.84,50.63,42.609,51.17,42.22,51.569z M54.96,43.59   c-0.391-0.39-0.62-0.94-0.62-1.5s0.229-1.11,0.62-1.5c0.79-0.79,2.22-0.79,3.01,0c0.4,0.39,0.62,0.94,0.62,1.5s-0.22,1.11-0.62,1.5   c-0.4,0.4-0.939,0.63-1.5,0.63C55.899,44.22,55.359,43.99,54.96,43.59z M44.92,56.54c0.399,0.39,0.62,0.939,0.62,1.5   c0,0.56-0.221,1.109-0.62,1.5c-0.39,0.399-0.94,0.62-1.5,0.62c-0.561,0-1.11-0.221-1.5-0.62c-0.4-0.391-0.63-0.94-0.63-1.5   c0-0.561,0.229-1.11,0.63-1.5C42.7,55.74,44.13,55.74,44.92,56.54z M57.97,56.54c0.4,0.39,0.62,0.939,0.62,1.5   c0,0.56-0.22,1.109-0.62,1.5c-0.4,0.399-0.939,0.63-1.5,0.63c-0.56,0-1.11-0.23-1.51-0.63c-0.391-0.391-0.62-0.94-0.62-1.5   c0-0.561,0.229-1.11,0.62-1.5C55.75,55.75,57.18,55.75,57.97,56.54z M44.92,40.59c0.399,0.39,0.62,0.94,0.62,1.5   s-0.221,1.11-0.62,1.5c-0.39,0.4-0.94,0.62-1.5,0.62c-0.561,0-1.11-0.22-1.5-0.62c-0.4-0.39-0.63-0.94-0.63-1.5   s0.229-1.11,0.63-1.5C42.7,39.8,44.13,39.8,44.92,40.59z"></path></g></svg></g></g></svg>